# xmcd CD database file
#
# Track frame offsets:
#	150
#	18495
#	45356
#	63312
#
# Disc length: 1175 seconds
#
# Revision: 1
# Processed by: cddbd v1.5.2PL0 Copyright (c) Steve Scherf et al.
# Submitted via: CDex 1.51
#
DISCID=28049504
DTITLE=Pay TV - Fashion Report
DYEAR=2007
DGENRE=Disco
TTITLE0=Fashion Report
TTITLE1=Fashion Report (Clubmix)
TTITLE2=Fashion Report (Orange Fuzzz's Club Remix)
TTITLE3=Fashion Report (Brada Trpetzustat's Darkroom Remix)
EXTD=YEAR: 2007
EXTT0=
EXTT1=
EXTT2=
EXTT3=
PLAYORDER=
